<?xml version="1.0" encoding="UTF-8"?>
<svg id="_图层_2" data-name="图层 2" xmlns="http://www.w3.org/2000/svg" viewBox="0 0 213.06 167.93">
  <defs>
    <style>
      .cls-1 {
        fill: #1454fc;
      }

      .cls-1, .cls-2, .cls-3 {
        stroke-width: 0px;
      }

      .cls-2 {
        fill: #1392fb;
      }

      .cls-3 {
        fill: #fff;
      }
    </style>
  </defs>
  <g id="_图层_1-2" data-name="图层 1">
    <g>
      <path class="cls-2" d="M177.29,81.09c-19.72,0-35.77-16.05-35.77-35.77s16.05-35.77,35.77-35.77,35.77,16.05,35.77,35.77-16.05,35.77-35.77,35.77Z"/>
      <path class="cls-1" d="M109.57,0C63.2,0,25.61,37.59,25.61,83.96c0,4.5.39,8.91,1.07,13.22,3.7-1.86,7.96-3.91,12.72-6.12,27.71-12.39,44.81-15.64,55.12-15.65h.07c3.41,0,6.08.35,8.14.85.18.05.35.09.53.15.15.1.3.2.44.3,4.24,1.73,6.7,6.79,5.63,11.85-4.04,19.17-36.5,42.25-58.25,55.6,15.12,14.7,35.75,23.76,58.5,23.76,46.37,0,83.96-37.59,83.96-83.96S155.94,0,109.57,0Z"/>
      <path class="cls-2" d="M41.04,160.55c-4.66-.45-30.27-2.91-32.17-12.84-1.02-5.33,5.09-11.18,10.72-16.58,3.27-3.14,6.61-5.62,9.65-7.53-7.88,3.97-13.28,8.81-13.91,9.4-5.72,5.23-17.47,15.99-15,23.28,4.37,12.84,50.14,7.19,72.68,3.58-10.55,1.35-21.91,1.67-31.98.7Z"/>
      <g>
        <path class="cls-2" d="M109.32,87.08c-4.26,17.96-40.22,39.78-61.79,51.23-24.82,13.17-20.01,4.62-16.72-2.44.01,0,.01-.01.02-.02,10.53-17.59-.23-22.37-6.83-22.72-20.47-1.19-16.46-6.25,2.29-15.75,3.78-1.91,8.18-4.03,13.1-6.32,36.99-16.53,55.07-16.79,63.33-14.8.18.05.35.09.53.15,4.51,1.38,7.18,6.02,6.07,10.67Z"/>
        <path class="cls-3" d="M80.05,110.3c-35.38,26.49-35.82,9.55-36.04,4.05.27-11.98-8.32-16.05-17.71-16.98,3.78-1.91,8.18-4.03,13.1-6.32,36.99-16.53,55.07-16.79,63.33-14.8.18.05.35.09.53.15,13.68,8.87-16.59,28.98-23.2,33.89Z"/>
      </g>
    </g>
  </g>
</svg>