<?xml version="1.0" encoding="UTF-8"?>
<svg id="_图层_2" data-name="图层 2" xmlns="http://www.w3.org/2000/svg" viewBox="0 0 819.32 179.55">
  <defs>
    <style>
      .cls-1 {
        fill: #1454fc;
      }

      .cls-1, .cls-2, .cls-3, .cls-4, .cls-5, .cls-6, .cls-7, .cls-8 {
        stroke-width: 0px;
      }

      .cls-2 {
        fill: #1475f7;
      }

      .cls-3 {
        fill: #1392fb;
      }

      .cls-4 {
        fill: #1596f2;
      }

      .cls-5 {
        fill: #14a6f1;
      }

      .cls-6 {
        fill: #1385f5;
      }

      .cls-7 {
        fill: #fff;
      }

      .cls-8 {
        fill: #1364f9;
      }
    </style>
  </defs>
  <g id="_图层_1-2" data-name="图层 1">
    <g>
      <path class="cls-1" d="M288.13,83.23c-.57.95-.31,1.97-.31,2.92-.02,18.23-.05,36.47.03,54.7.01,2.32-.44,3.31-3.04,3.55-9.28.85-18.54,1.98-27.8,3.06-1.37.16-2.09-.14-2.02-1.63.03-.66,0-1.33,0-2,0-40.8,0-81.6,0-122.4,0-4.01.01-3.92,4.12-4.31,8.62-.82,17.24-1.62,25.83-2.7,2.54-.32,2.9.47,2.9,2.68-.07,16.9-.04,33.81-.04,50.71,0,.99,0,1.98,0,3.04,1.17-.1,1.43-1.01,1.88-1.62,12.94-17.66,25.89-35.33,38.75-53.05,1.16-1.59,2.23-1.95,4.14-1.66,9.7,1.51,19.44,2.83,29.16,4.22,2.69.38,2.76.5,1.1,2.73-13.32,18-26.62,36.02-40.02,53.97-1.4,1.87-1.55,3.1-.09,5.11,14.19,19.43,28.26,38.95,42.36,58.45.34.47.63.99,1.02,1.42,1.33,1.46.51,1.88-.94,2.14-4.34.78-8.68,1.61-13.01,2.42-5.73,1.06-11.49,1.97-17.17,3.24-2.53.57-3.83-.06-5.24-2.22-13.21-20.31-26.54-40.54-39.86-60.77-.47-.72-.74-1.67-1.76-2.02Z"/>
      <path class="cls-2" d="M495.76,63.91c1.48-2.96,3.09-5.83,5.07-8.48,5-6.68,12.1-9.04,20.01-9.65,1.82-.14,3.66.01,5.48.08,1.25.04,1.79.61,1.42,1.94-2.49,9.07-4.96,18.14-7.4,27.22-.33,1.23-.98,1.47-2.18,1.41-11.14-.57-17.39,4.33-19.51,15.25-.54,2.78-.83,5.59-.83,8.43,0,13.49-.06,26.97.05,40.46.02,2.53-.49,3.63-3.28,3.9-8.03.77-16.04,1.84-24.03,2.93-1.87.26-2.46-.33-2.28-2.06.02-.16,0-.33,0-.5,0-30.8.03-61.6-.04-92.4,0-2.14.68-2.95,2.73-3.18,7.19-.82,14.38-1.68,21.55-2.67,1.95-.27,2.47.3,2.43,2.18-.1,4.98-.03,9.97-.03,14.95.28.06.56.13.84.19Z"/>
      <path class="cls-5" d="M761.72,49.62c5.78-1.23,11.7-1.53,17.52-2.44,1.64-.26,3.32-.31,4.95-.59,1.71-.3,2.17.4,2.19,2.01.05,4.66.22,9.31.35,13.97.01.4.08.8.17,1.72,1.47-2.52,2.66-4.65,3.94-6.72,6.16-9.99,16.34-12.31,26.87-11.77,1.44.07,1.85.81,1.48,2.17-2.46,8.99-4.92,17.97-7.33,26.97-.37,1.38-1.17,1.54-2.42,1.45-3.28-.23-6.5.2-9.54,1.46-6.89,2.85-9.02,8.83-10.07,15.52-.75,4.8-.53,9.63-.55,14.45-.03,10.99-.07,21.97.04,32.96.02,2.32-.49,3.39-3.02,3.66-8.68.9-17.34,2.04-26.01,3.08-.27-1.06-.27-2.14-.27-3.22,0-30.02,0-60.04.03-90.06,0-1.66-.81-3.78,1.66-4.63Z"/>
      <path class="cls-6" d="M626.18,65.97c-13.36-21.96-40.13-25.41-57.75-16.43-5.35,2.73-9.94,6.31-13.63,11.36-.87-1.18-.61-2.12-.62-3-.04-2.91-.05-5.83-.02-8.74.02-1.74-.49-2.55-2.5-2.31-6.77.83-13.56,1.56-20.36,2.16-1.96.17-2.51.91-2.51,2.78.04,41.79.04,83.58,0,125.38,0,2.02.62,2.58,2.63,2.3,7.41-1.05,14.85-1.96,22.28-2.92,3.44-.44,3.45-.45,3.45-4.04,0-10.32,0-20.65,0-30.97,0-2.9.14-2.92,2.72-1.5,2.48,1.36,4.97,2.72,7.55,3.87,19.88,8.82,42.09,3.44,55.35-13.35,13.96-17.66,15.32-44.99,3.38-64.6ZM581.16,121.53c-13.67.19-25.37-10.95-25.47-24.76-.1-14.03,11.81-25.42,25.65-25.13,13.4.28,24.69,11.43,24.59,25.12-.1,13.6-11.39,24.58-24.77,24.77Z"/>
      <path class="cls-4" d="M736.87,66.53c-10.8-14.68-25.61-21.47-46.48-21.52-7-.14-16.29,1.77-24.69,6.93-19.92,12.23-27.47,35.92-23.09,57.4,4.31,21.12,26.1,38.75,48.97,39.08,27.85.4,52.42-18.88,54.49-45.69,1.01-13.12-1.28-25.43-9.2-36.21ZM693.82,120.1c-12.65.18-22.99-10.1-23.65-22.33-.69-12.83,9.44-24.51,22.68-24.87,13.07-.35,24.14,10.48,24.03,23.77-.08,12.79-10.48,23.24-23.06,23.42Z"/>
      <path class="cls-8" d="M451.66,110.61c0-7.33.08-14.66-.03-21.98-.08-5.41-.26-10.81-1.28-16.16-2.84-14.95-10.98-23.73-25.39-26.19-13.98-2.39-27.7-.54-41.07,4.04-1.11.38-1.51,1.08-1.7,2.17-1.2,7.05-2.43,14.1-3.71,21.15-.32,1.79.41,1.8,1.75,1.32,2.43-.86,4.87-1.72,7.34-2.45,7.05-2.1,14.13-3.8,21.61-2.9,9.7,1.17,15.29,7.43,14.95,16.97-.05,1.31-.27,2.25-1.87,1.18-5.7-3.84-12.14-5.22-18.87-5.82-13.2-1.17-23.57,3.54-31.2,14.4-8.61,12.25-7.6,32.21,4.35,42.45,6.98,5.98,15.17,8.4,24.14,8.82,6.92.33,13.19-1.33,18.53-5.96,1.38-1.2,2.93-2.2,4.37-3.33,1.35-1.05,1.84-.69,1.8.95-.05,2.16.05,4.33,0,6.49-.03,1.45.5,1.86,1.96,1.65,7.16-1.05,14.33-2.1,21.52-2.96,2.27-.27,2.84-1.24,2.82-3.37-.09-10.16-.04-20.32-.04-30.47ZM418.32,123.4c-3.98,3.88-9.83,4.55-14.4,3.01-1.57-.53-6.04-2.35-8.13-7.1-2.3-5.22-.56-11.36,3.09-14.97,5.28-5.2,15.39-5.94,20.68.43,4.54,5.46,3.63,13.87-1.24,18.62Z"/>
      <g>
        <path class="cls-3" d="M177.29,81.09c-19.72,0-35.77-16.05-35.77-35.77s16.05-35.77,35.77-35.77,35.77,16.05,35.77,35.77-16.05,35.77-35.77,35.77Z"/>
        <path class="cls-1" d="M109.57,0C63.2,0,25.61,37.59,25.61,83.96c0,4.5.39,8.91,1.07,13.22,3.7-1.86,7.96-3.91,12.72-6.12,27.71-12.39,44.81-15.64,55.12-15.65h.07c3.41,0,6.08.35,8.14.85.18.05.35.09.53.15.15.1.3.2.44.3,4.24,1.73,6.7,6.79,5.63,11.85-4.04,19.17-36.5,42.25-58.25,55.6,15.12,14.7,35.75,23.76,58.5,23.76,46.37,0,83.96-37.59,83.96-83.96S155.94,0,109.57,0Z"/>
        <path class="cls-3" d="M41.04,160.55c-4.66-.45-30.27-2.91-32.17-12.84-1.02-5.33,5.09-11.18,10.72-16.58,3.27-3.14,6.61-5.62,9.65-7.53-7.88,3.97-13.28,8.81-13.91,9.4-5.72,5.23-17.47,15.99-15,23.28,4.37,12.84,50.14,7.19,72.68,3.58-10.55,1.35-21.91,1.67-31.98.7Z"/>
        <g>
          <path class="cls-3" d="M109.32,87.08c-4.26,17.96-40.22,39.78-61.79,51.23-24.82,13.17-20.01,4.62-16.72-2.44.01,0,.01-.01.02-.02,10.53-17.59-.23-22.37-6.83-22.72-20.47-1.19-16.46-6.25,2.29-15.75,3.78-1.91,8.18-4.03,13.1-6.32,36.99-16.53,55.07-16.79,63.33-14.8.18.05.35.09.53.15,4.51,1.38,7.18,6.02,6.07,10.67Z"/>
          <path class="cls-7" d="M80.05,110.3c-35.38,26.49-35.82,9.55-36.04,4.05.27-11.98-8.32-16.05-17.71-16.98,3.78-1.91,8.18-4.03,13.1-6.32,36.99-16.53,55.07-16.79,63.33-14.8.18.05.35.09.53.15,13.68,8.87-16.59,28.98-23.2,33.89Z"/>
        </g>
      </g>
    </g>
  </g>
</svg>