<?xml version="1.0" encoding="UTF-8"?>
<svg width="24px" height="24px" viewBox="0 0 24 24" version="1.1" xmlns="http://www.w3.org/2000/svg" xmlns:xlink="http://www.w3.org/1999/xlink">
    <title></title>
    <defs>
        <linearGradient x1="100%" y1="50%" x2="0%" y2="50%" id="linearGradient-1">
            <stop stop-color="#92A4FF" offset="0%"></stop>
            <stop stop-color="#637DFF" offset="100%"></stop>
        </linearGradient>
    </defs>
    <g stroke="none" stroke-width="1" fill="none" fill-rule="evenodd">
        <g>
            <rect fill-opacity="0" fill="#F0F4FF" x="0" y="0" width="24" height="24" rx="6"></rect>
            <g transform="translate(5, 5)" fill-rule="nonzero">
                <rect fill="#000000" opacity="0" x="7.90259946e-09" y="7.90217305e-09" width="14" height="13.9999998"></rect>
                <path d="M6.3448711,6.35491986 L6.3448711,2.3218535 C6.3448711,1.70604284 6.10030836,1.11544086 5.66486318,0.679998252 C5.229418,0.244555644 4.63881457,0 4.02300391,0 L2.32186719,0 C1.70605417,0 1.11544866,0.24455752 0.680003092,0.680003085 C0.244557523,1.11544865 0,1.70605415 0,2.32186717 L0,4.0330527 C0,5.31538452 1.03953536,6.35491986 2.32186719,6.35491986 L6.3448711,6.35491986 Z M7.63579687,6.35491986 L11.6781328,6.35491986 C12.9604209,6.35481416 13.9998943,5.31534074 14,4.0330527 L14,2.32186717 C14,1.03953534 12.9604647,0 11.6781328,0 L9.95766406,0 C9.34185104,0 8.75124553,0.24455752 8.31579996,0.680003085 C7.88035439,1.11544865 7.63579687,1.70605415 7.63579687,2.32186717 L7.63579687,6.35491986 Z M6.3448711,7.64507999 L2.32186719,7.64507999 C1.70605417,7.64507999 1.11544866,7.88963751 0.680003092,8.32508308 C0.244557523,8.76052864 0,9.35113414 0,9.96694716 L0,11.6781327 C0,12.9604645 1.03953536,13.9999999 2.32186719,13.9999999 L4.02300391,13.9999999 C5.30533575,13.9999999 6.3448711,12.9604645 6.3448711,11.6781327 L6.3448711,7.64507999 Z M7.63579688,7.64508 L7.63579688,11.6781464 C7.63579688,12.9601686 8.67486261,13.9995696 9.95688477,13.9999999 L11.6773535,13.9999999 C12.2932704,14.0001558 12.8840172,13.7556062 13.3196093,13.3201602 C13.7552014,12.8847142 14,12.2940496 14,11.6781327 L14,9.96694716 C14,8.68461534 12.9604647,7.64508 11.6781328,7.64508 L7.63579688,7.64508 Z" id="" fill="url(#linearGradient-1)"></path>
            </g>
        </g>
    </g>
</svg>